<svg width="18" height="15" viewBox="0 0 18 15" fill="none" xmlns="http://www.w3.org/2000/svg">
<path d="M1.80002 14.4004L12.1366 14.4004C12.4231 14.4003 12.7054 14.3318 12.9601 14.2006C13.2148 14.0694 13.4345 13.8794 13.6009 13.6462L17.8319 7.72322C17.9412 7.57077 18 7.3879 18 7.20031C18 7.01272 17.9412 6.82985 17.8319 6.67741L13.6009 0.754444C13.4345 0.521275 13.2148 0.331202 12.9601 0.200024C12.7054 0.0688456 12.4231 0.00035214 12.1366 0.000236511L1.80002 0.000236511C0.80731 0.000236511 0 0.807545 0 1.80026V12.6004C0 13.5931 0.80731 14.4004 1.80002 14.4004ZM1.80002 1.80026L12.1366 1.80026L15.9941 7.20031L12.1366 12.6004L1.80002 12.6004V1.80026Z" fill="#7F8A8A"/>
</svg>
