<svg width="75" height="75" viewBox="0 0 75 75" fill="none" xmlns="http://www.w3.org/2000/svg">
<g clip-path="url(#clip0_1042_774)">
<path d="M14 8.08594V62.4023C14 64.1895 15.4502 65.625 17.2227 65.625C18.1455 65.625 19.0391 65.2295 19.6543 64.5264L31.7539 50.6836L40.2646 67.7197C41.4219 70.0342 44.2344 70.9717 46.5488 69.8145C48.8633 68.6572 49.8008 65.8447 48.6436 63.5303L40.3379 46.875H57.6377C59.4248 46.875 60.875 45.4248 60.875 43.6377C60.875 42.7148 60.4795 41.8359 59.791 41.2207L19.6543 5.55176C19.0244 4.99512 18.2334 4.6875 17.3984 4.6875C15.5234 4.6875 14 6.21094 14 8.08594Z" fill="white"/>
</g>
<defs>
<clipPath id="clip0_1042_774">
<rect width="46.875" height="75" fill="white" transform="translate(14)"/>
</clipPath>
</defs>
</svg>
